<svg width="55" height="56" viewBox="0 0 55 56" fill="none" xmlns="http://www.w3.org/2000/svg">
<mask id="mask0_31_134" style="mask-type:alpha" maskUnits="userSpaceOnUse" x="0" y="0" width="55" height="56">
<rect y="0.5" width="55" height="55" fill="#D9D9D9"/>
</mask>
<g mask="url(#mask0_31_134)">
<path d="M21.8854 35.2188L41.3073 15.7969C41.7656 15.3385 42.3004 15.1094 42.9115 15.1094C43.5226 15.1094 44.0573 15.3385 44.5156 15.7969C44.974 16.2552 45.2031 16.7995 45.2031 17.4297C45.2031 18.0599 44.974 18.6042 44.5156 19.0625L23.4896 40.1458C23.0313 40.6042 22.4965 40.8333 21.8854 40.8333C21.2743 40.8333 20.7396 40.6042 20.2813 40.1458L10.4271 30.2917C9.96876 29.8333 9.74914 29.2891 9.76824 28.6589C9.78733 28.0286 10.026 27.4844 10.4844 27.026C10.9427 26.5677 11.487 26.3385 12.1172 26.3385C12.7474 26.3385 13.2917 26.5677 13.75 27.026L21.8854 35.2188Z" fill="#1F7600"/>
</g>
</svg>
