<svg width="20" height="22" viewBox="0 0 20 22" fill="none" xmlns="http://www.w3.org/2000/svg">
<path d="M9.99306 16.3942C9.82639 16.3942 9.67014 16.3649 9.52431 16.3061C9.37847 16.2473 9.24769 16.1592 9.13194 16.0417L4.20139 11.0353C3.94676 10.7788 3.82523 10.4797 3.83681 10.138C3.84838 9.79599 3.97593 9.49573 4.21944 9.23718C4.48519 8.97863 4.78588 8.84936 5.12153 8.84936C5.45718 8.84936 5.75232 8.97863 6.00694 9.23718L8.75 12.0577V1.26923C8.75 0.909615 8.8691 0.608172 9.10729 0.364903C9.34549 0.121634 9.64063 0 9.99271 0C10.3448 0 10.6424 0.121634 10.8854 0.364903C11.1285 0.608172 11.25 0.909615 11.25 1.26923V12.0577L14.0278 9.23718C14.2748 8.97863 14.5679 8.85524 14.9073 8.86699C15.2469 8.87874 15.5495 9.01389 15.8153 9.27244C16.0588 9.53098 16.1806 9.83066 16.1806 10.1715C16.1806 10.5123 16.0532 10.812 15.7986 11.0705L10.8681 16.0417C10.7431 16.1592 10.6076 16.2473 10.4618 16.3061C10.316 16.3649 10.1597 16.3942 9.99306 16.3942ZM2.49028 22C1.80231 22 1.21528 21.7514 0.729167 21.2543C0.243056 20.7572 0 20.1596 0 19.4615V18.1923C0 17.8327 0.119097 17.5313 0.357291 17.288C0.595486 17.0447 0.890625 16.9231 1.24271 16.9231C1.59479 16.9231 1.89236 17.0447 2.13542 17.288C2.37847 17.5313 2.5 17.8327 2.5 18.1923V19.4615H17.5V18.1923C17.5 17.8327 17.6191 17.5313 17.8573 17.288C18.0955 17.0447 18.3906 16.9231 18.7427 16.9231C19.0948 16.9231 19.3924 17.0447 19.6354 17.288C19.8785 17.5313 20 17.8327 20 18.1923V19.4615C20 20.1596 19.7551 20.7572 19.2653 21.2543C18.7755 21.7514 18.1866 22 17.4986 22H2.49028Z" fill="#CAC7D1"/>
</svg>
