<svg width="31" height="16" viewBox="0 0 31 16" fill="none" xmlns="http://www.w3.org/2000/svg">
<path d="M14.0769 14.04C14.0769 14.8685 13.4054 15.54 12.5769 15.54H8.07694C6.00194 15.54 4.23319 14.8088 2.77068 13.3463C1.30818 11.8838 0.576935 10.115 0.576935 8.04004C0.576935 5.96504 1.30818 4.19629 2.77068 2.73379C4.23319 1.27129 6.00194 0.540039 8.07694 0.540039H12.5769C13.4054 0.540039 14.0769 1.21161 14.0769 2.04004C14.0769 2.86847 13.4054 3.54004 12.5769 3.54004H8.07694C6.82694 3.54004 5.76443 3.97754 4.88943 4.85254C4.01443 5.72754 3.57693 6.79004 3.57693 8.04004C3.57693 9.29004 4.01443 10.3525 4.88943 11.2275C5.76443 12.1025 6.82694 12.54 8.07694 12.54H12.5769C13.4054 12.54 14.0769 13.2116 14.0769 14.04ZM11.0769 9.54004C10.2485 9.54004 9.57693 8.86847 9.57693 8.04004C9.57693 7.21161 10.2485 6.54004 11.0769 6.54004H20.0769C20.9054 6.54004 21.5769 7.21161 21.5769 8.04004C21.5769 8.86847 20.9054 9.54004 20.0769 9.54004H11.0769ZM18.5769 15.54C17.7485 15.54 17.0769 14.8685 17.0769 14.04C17.0769 13.2116 17.7485 12.54 18.5769 12.54H23.0769C24.3269 12.54 25.3894 12.1025 26.2644 11.2275C27.1394 10.3525 27.5769 9.29004 27.5769 8.04004C27.5769 6.79004 27.1394 5.72754 26.2644 4.85254C25.3894 3.97754 24.3269 3.54004 23.0769 3.54004H18.5769C17.7485 3.54004 17.0769 2.86847 17.0769 2.04004C17.0769 1.21161 17.7485 0.540039 18.5769 0.540039H23.0769C25.1519 0.540039 26.9207 1.27129 28.3832 2.73379C29.8457 4.19629 30.5769 5.96504 30.5769 8.04004C30.5769 10.115 29.8457 11.8838 28.3832 13.3463C26.9207 14.8088 25.1519 15.54 23.0769 15.54H18.5769Z" fill="#191351"/>
</svg>
